<svg fill="#000000" width="200px" height="200px" viewBox="0 0 6 6" xmlns="http://www.w3.org/2000/svg" data-name="Layer 1"><path d="M3 0.562a2.5 2.5 0 0 0 -0.79 4.872c0.125 0.022 0.172 -0.053 0.172 -0.119 0 -0.059 -0.003 -0.256 -0.003 -0.466 -0.628 0.116 -0.791 -0.153 -0.841 -0.294a0.91 0.91 0 0 0 -0.256 -0.353c-0.087 -0.047 -0.212 -0.163 -0.003 -0.166a0.5 0.5 0 0 1 0.385 0.256 0.534 0.534 0 0 0 0.728 0.206 0.525 0.525 0 0 1 0.16 -0.335c-0.556 -0.063 -1.137 -0.278 -1.137 -1.234a0.975 0.975 0 0 1 0.256 -0.672 0.9 0.9 0 0 1 0.025 -0.662s0.209 -0.066 0.688 0.256a2.357 2.357 0 0 1 1.25 0c0.478 -0.325 0.688 -0.256 0.688 -0.256a0.9 0.9 0 0 1 0.025 0.662 0.968 0.968 0 0 1 0.256 0.672c0 0.959 -0.585 1.172 -1.141 1.234a0.593 0.593 0 0 1 0.169 0.463c0 0.335 -0.003 0.603 -0.003 0.688 0 0.066 0.047 0.144 0.172 0.119A2.501 2.501 0 0 0 3 0.562"/></svg>