<svg viewBox="0 0 200 200" xml:space="preserve" xmlns="http://www.w3.org/2000/svg" width="200" height="200"><path d="M160 101.467c0-4.133-.4-8.4-1.067-12.4H101.2v23.6h33.067c-1.333 7.6-5.733 14.267-12.267 18.533l19.733 15.333C153.333 135.733 160 120 160 101.467" style="fill:#4280ef"/><path d="M101.2 161.2c16.533 0 30.4-5.467 40.533-14.8L122 131.2c-5.467 3.733-12.533 5.867-20.8 5.867-16 0-29.467-10.8-34.4-25.2l-20.267 15.6C56.933 148.134 78 161.2 101.2 161.2" style="fill:#34a353"/><path d="M66.8 111.733a37.2 37.2 0 0 1 0-23.467L46.533 72.533c-8.667 17.333-8.667 37.733 0 54.933z" style="fill:#f6b704"/><path d="M101.2 63.067c8.667-.133 17.2 3.2 23.467 9.2l17.466-17.6c-11.067-10.4-25.733-16-40.933-15.867-23.2 0-44.267 13.067-54.667 33.733L66.8 88.266c4.933-14.533 18.4-25.2 34.4-25.2" style="fill:#e54335"/></svg>