<svg width="800" height="800" viewBox="0 0 24 24" xmlns="http://www.w3.org/2000/svg"><path d="M3.512 15h4.66A26 26 0 0 1 8 12c0-1.044.06-2.052.172-3h-4.66A9 9 0 0 0 3 12c0 1.052.18 2.062.512 3m.424 1a9.02 9.02 0 0 0 6.092 4.783c-.78-1.06-1.376-2.746-1.714-4.783zm16.552-1A9 9 0 0 0 21 12c0-1.052-.18-2.062-.512-3h-4.66c.113.948.172 1.956.172 3s-.06 2.052-.172 3zm-.424 1h-4.378c-.338 2.037-.935 3.723-1.714 4.783A9.02 9.02 0 0 0 20.064 16m-10.88-1h5.632c.118-.938.184-1.947.184-3s-.066-2.062-.184-3H9.184A24 24 0 0 0 9 12c0 1.053.066 2.062.184 3m.151 1c.522 2.968 1.583 5 2.665 5s2.143-2.032 2.665-5zm-5.4-8h4.379c.338-2.037.935-3.723 1.714-4.783A9.02 9.02 0 0 0 3.936 8m16.13 0a9.02 9.02 0 0 0-6.093-4.783c.78 1.06 1.376 2.746 1.714 4.783zM9.334 8h5.33C14.143 5.032 13.082 3 12 3S9.857 5.032 9.335 8M12 22C6.477 22 2 17.523 2 12S6.477 2 12 2s10 4.477 10 10-4.477 10-10 10"/></svg>