<svg data-v-653c4711="" width="240" height="240" viewBox="0 0 240 240" fill="none" xmlns="http://www.w3.org/2000/svg" class="header__logo"><path fill-rule="evenodd" clip-rule="evenodd" d="M0 55.41A40.4 40.4 0 0 1 40.41 15H210v31c0 16.05 -13 29.05 -29.04 29.05h-79.74a40.4 40.4 0 0 0 -40.4 40.41v10.29a40.4 40.4 0 0 0 40.4 40.4h79.74C197 166.16 210 179.17 210 195.2v29.8H40.41A40.4 40.4 0 0 1 0 184.6zm102.97 36.54h81.77A25.26 25.26 0 0 1 210 117.21v6.8a25.26 25.26 0 0 1 -25.26 25.25h-81.77A25.26 25.26 0 0 1 77.7 124v-6.8a25.26 25.26 0 0 1 25.26 -25.25" fill="url(#paint0_radial_734_4589)"/><defs><radialGradient id="paint0_radial_734_4589" cx="0" cy="0" r="1" gradientUnits="userSpaceOnUse" gradientTransform="rotate(55.378 -.582 1.014)scale(29.7535 118.891)"><stop offset="0.051483" stop-color="#C549FF"/><stop offset="0.815643" stop-color="#704BFF"/></radialGradient></defs></svg>