<svg version="1.0" xmlns="http://www.w3.org/2000/svg" width="240" height="240" fill="#e06" viewBox="0 0 180.001 180.001"><path d="M66.094 3.656C48.656 9.562 38.813 15.469 27 27.281-7.594 61.312-7.594 118.406 27 153c34.313 34.313 91.969 34.594 125.719.563 5.906-5.625 13.781-16.875 18-25.031 6.188-12.094 7.594-18.281 7.594-37.125C178.594 64.688 170.719 44.719 153 27 131.344 5.344 92.531-5.063 66.093 3.656m33.469 64.688c4.219 5.906 4.781 8.438 2.25 10.969-5.063 5.063-3.938 9 1.125 4.781 4.219-3.656 68.344-14.344 71.157-11.813.844.563-2.25 4.5-6.469 8.719-4.219 4.781-6.75 9.844-5.906 12.375 2.813 7.313-13.5 18-35.719 23.344-16.031 3.656-22.219 6.75-28.125 13.5L90 138.938l-7.594-8.719c-6.188-7.031-12.094-9.844-28.969-13.5-20.813-4.781-37.969-15.75-35.438-22.5.563-1.406-2.25-7.031-5.906-12.094C8.155 77.062 5.624 72.281 5.905 72c2.531-2.25 67.219 9 71.157 12.094 5.063 4.219 6.188.281 1.406-4.5-2.531-2.531-1.688-5.625 3.094-12.094 7.031-9.844 10.125-9.844 18 .844"/></svg>