<svg xmlns="http://www.w3.org/2000/svg" viewBox="0 0 240 240" xml:space="preserve" width="240" height="240"><radialGradient id="a" cx="8.15" cy="19.93" r="372.636" gradientTransform="matrix(1 0 0 -1 0 326)" gradientUnits="userSpaceOnUse"><stop offset=".053" style="stop-color:#d7d3e9"/><stop offset=".193" style="stop-color:#a19cde"/><stop offset=".383" style="stop-color:#696bd9"/><stop offset=".54" style="stop-color:#3a5ae7"/><stop offset=".773" style="stop-color:#225fe7"/><stop offset="1" style="stop-color:#0883d1"/></radialGradient><path d="M62.296 0h115.407C212.074 0 240 27.926 240 62.296v115.407c0 34.444 -27.926 62.296 -62.296 62.296H62.296C27.926 240 0 212.074 0 177.704V62.296C0 27.926 27.926 0 62.296 0" style="fill:url(#a)"/><path d="M203.704 123.481v2.222c-13.63 2.148 -42.963 7.259 -57.407 12.741 -5.185 2 -9.259 6 -11.259 11.185 -5.481 14.37 -10.667 43.852 -12.815 57.556h-4.444c-2.148 -13.704 -7.333 -43.259 -12.815 -57.556 -2 -5.111 -6.074 -9.185 -11.259 -11.185 -14.444 -5.556 -43.704 -10.593 -57.407 -12.741v-4.444c13.63 -2.148 42.963 -7.259 57.407 -12.741 5.185 -2 9.259 -6 11.259 -11.185 5.556 -14.37 10.667 -43.852 12.815 -57.556h4.444c2.148 13.704 7.333 43.185 12.815 57.556 2 5.111 6.074 9.185 11.259 11.185 14.444 5.481 43.778 10.593 57.407 12.741z" style="fill:#fff"/></svg>