<svg xmlns="http://www.w3.org/2000/svg" width="240" height="240" viewBox="0 0 240 240" fill="none"><script/><path fill-rule="evenodd" clip-rule="evenodd" d="M200.8 136.6c-3.87 3.86 -10.58 2.1 -12.87 -2.86a7.4 7.4 0 0 1 -0.69 -3.11V45a18.75 18.75 0 1 0 -37.5 0v43.34c0 3.73 -3.82 6.26 -7.37 5.13a5.45 5.45 0 0 1 -3.87 -5.11V18.75a18.75 18.75 0 1 0 -37.5 0v69.6a5.45 5.45 0 0 1 -3.88 5.12c-3.56 1.12 -7.38 -1.4 -7.38 -5.14V45a18.75 18.75 0 1 0 -37.5 0v85.66a7 7 0 0 1 -0.68 3.04c-2.23 4.86 -8.8 6.56 -12.58 2.78l-6.97 -6.97a18.75 18.75 0 1 0 -26.52 26.51l55.12 55.13A74.9 74.9 0 0 0 119.74 240a74.8 74.8 0 0 0 57.38 -26.7l57.28 -57.28a18.75 18.75 0 1 0 -26.52 -26.51zM119.74 210c33.13 0 60 -37.5 60 -37.5s-26.87 -37.5 -60 -37.5 -60 37.5 -60 37.5 26.86 37.5 60 37.5" fill="#333"/><path d="M142.24 172.5a22.5 22.5 0 1 1 -45 0 22.5 22.5 0 0 1 45 0" fill="gray"/></svg>