<svg width="108" height="95" viewBox="0 0 108 95" fill="none" xmlns="http://www.w3.org/2000/svg"><path d="M107.338 84.16V63.59a2.32 2.32 0 0 0-1.395-2.092l-15.922-7.322V36.743a13.95 13.95 0 0 0-8.484-12.9l-7.787-3.255v-9.181a2.32 2.32 0 0 0-1.394-2.092L53.876.83a2.32 2.32 0 0 0-1.975 0L33.42 9.315a2.32 2.32 0 0 0-1.394 2.092v9.414l-6.16 2.905a13.95 13.95 0 0 0-7.903 12.668v17.782L1.926 61.498A2.32 2.32 0 0 0 .531 63.59v20.57a2.32 2.32 0 0 0 1.395 2.093l18.479 8.484.93.232.93-.232 18.479-8.484a2.33 2.33 0 0 0 1.394-2.092v-3.952L47.95 83a13.95 13.95 0 0 0 11.971 0l5.811-2.79v3.952a2.33 2.33 0 0 0 1.395 2.092l18.479 8.484.93.232.93-.232 18.478-8.484a2.32 2.32 0 0 0 1.395-2.092M86.535 69.634l-12.9-6.043 12.9-5.928 12.9 5.928zm-49.86-54.507 13.831 6.276V36.86l-13.83-6.392zm18.48 6.276 13.947-6.276v15.34L55.155 36.86zM52.831 5.479l12.9 5.928-12.9 6.043-12.9-6.043zM21.45 69.633 8.434 63.59l13.017-5.928 12.9 5.928zM5.296 67.31l13.83 6.276v15.457L5.297 82.65zm18.48 21.733V73.585l13.83-6.392V82.65zM58.06 78.698a9.3 9.3 0 0 1-7.904 0l-7.786-3.719V63.59a2.33 2.33 0 0 0-1.395-2.091L22.613 53.13V36.394a9.3 9.3 0 0 1 5.346-8.368l4.184-1.976v5.928a2.32 2.32 0 0 0 1.395 2.092l18.479 8.484.93.232.93-.232 18.479-8.484a2.32 2.32 0 0 0 1.394-2.092v-6.276l6.044 2.557a9.3 9.3 0 0 1 5.578 8.484v16.27l-18.246 8.485a2.32 2.32 0 0 0-1.395 2.092v11.39zm12.435-11.505 13.714 6.392v15.457L70.38 82.65zm18.363 21.85V73.584l13.83-6.392V82.65z" fill="#84cc16"/></svg>